# xmcd
#
# Track frame offsets: 
#        150
#        14850
#        32283
#        52994
#        71396
#        88874
#        103407
#        119532
#        140767
#        154815
#        172317
#
# Disc length: 2603 seconds
#
# Revision: 0
# Processed by: cddbd v1.5.2PL0 Copyright (c) Steve Scherf et al.
# Submitted via: ExactAudioCopy v0.99pb3
#
DISCID=a00a290b
DTITLE=Quiet Loner - Greedy Magicians
DYEAR=2012
DGENRE=Bluegrass
TTITLE0=Days of Surveillance
TTITLE1=Kneel and Comply
TTITLE2=Discontented Winter
TTITLE3=The Ghost of Oswald Mosley
TTITLE4=The Captain's Diseased
TTITLE5=Greedy Magicians
TTITLE6=A Matter of Time
TTITLE7=Unmarked Grave
TTITLE8=Between the Wars
TTITLE9=We Will Not Forget
TTITLE10=Don't Despair 
EXTD=
EXTT0=
EXTT1=
EXTT2=
EXTT3=
EXTT4=
EXTT5=
EXTT6=
EXTT7=
EXTT8=
EXTT9=
EXTT10=
PLAYORDER=
